<svg width="20" height="18" viewBox="0 0 20 18" fill="none" xmlns="http://www.w3.org/2000/svg">
<g clip-path="url(#clip0_91_3)">
<path d="M3.07986 7.80508L0 13.4457V3.0625C0 1.75254 0.996528 0.6875 2.22222 0.6875H6.30208C6.89236 0.6875 7.45833 0.936133 7.875 1.38145L8.79514 2.36484C9.21181 2.81016 9.77778 3.05879 10.3681 3.05879H14.4444C15.6701 3.05879 16.6667 4.12383 16.6667 5.43379V6.62129H5C4.20833 6.62129 3.47917 7.07031 3.07986 7.80137V7.80508ZM4.03819 8.40254C4.23958 8.03516 4.60417 7.8125 5 7.8125H18.8889C19.2882 7.8125 19.6528 8.03887 19.8507 8.40996C20.0486 8.78106 20.0486 9.23379 19.8472 9.60117L15.9583 16.7262C15.7604 17.0898 15.3958 17.3125 15 17.3125H1.11111C0.711806 17.3125 0.347222 17.0861 0.149306 16.715C-0.0486111 16.3439 -0.0486111 15.8912 0.152778 15.5238L4.04167 8.39883L4.03819 8.40254Z" fill="#6D6D6D"/>
</g>
<defs>
<clipPath id="clip0_91_3">
<rect width="19.9987" height="16.625" fill="white" transform="translate(0 0.6875)"/>
</clipPath>
</defs>
</svg>
