<svg width="16" height="16" viewBox="0 0 16 16" fill="none" xmlns="http://www.w3.org/2000/svg">
<g clip-path="url(#clip0_74_9)">
<g clip-path="url(#clip1_74_9)">
<path d="M5.21439 12.4187C5.21439 12.4812 5.1421 12.5312 5.05095 12.5312C4.94723 12.5406 4.87494 12.4906 4.87494 12.4187C4.87494 12.3562 4.94723 12.3062 5.03838 12.3062C5.13267 12.2969 5.21439 12.3469 5.21439 12.4187ZM4.23689 12.2781C4.21489 12.3406 4.27775 12.4125 4.37204 12.4312C4.45376 12.4625 4.54806 12.4312 4.56691 12.3687C4.58577 12.3062 4.52605 12.2344 4.43176 12.2063C4.35004 12.1844 4.25889 12.2156 4.23689 12.2781ZM5.62614 12.225C5.53499 12.2469 5.47213 12.3063 5.48155 12.3781C5.49098 12.4406 5.5727 12.4813 5.667 12.4594C5.75815 12.4375 5.82101 12.3781 5.81158 12.3156C5.80215 12.2563 5.71729 12.2156 5.62614 12.225ZM7.69429 0.25C3.33482 0.25 0 3.54063 0 7.875C0 11.3406 2.19388 14.3063 5.32754 15.35C5.72986 15.4219 5.8713 15.175 5.8713 14.9719C5.8713 14.7781 5.86187 13.7094 5.86187 13.0531C5.86187 13.0531 3.6617 13.5219 3.19967 12.1219C3.19967 12.1219 2.84136 11.2125 2.32589 10.9781C2.32589 10.9781 1.60612 10.4875 2.37618 10.4969C2.37618 10.4969 3.15881 10.5594 3.58941 11.3031C4.27775 12.5094 5.43127 12.1625 5.88073 11.9563C5.95302 11.4563 6.15732 11.1094 6.38362 10.9031C4.62663 10.7094 2.85393 10.4562 2.85393 7.45C2.85393 6.59062 3.0928 6.15938 3.5957 5.60938C3.51398 5.40625 3.24682 4.56875 3.67742 3.4875C4.33433 3.28437 5.84615 4.33125 5.84615 4.33125C6.47477 4.15625 7.15054 4.06563 7.82002 4.06563C8.4895 4.06563 9.16526 4.15625 9.79388 4.33125C9.79388 4.33125 11.3057 3.28125 11.9626 3.4875C12.3932 4.57188 12.1261 5.40625 12.0443 5.60938C12.5472 6.1625 12.8553 6.59375 12.8553 7.45C12.8553 10.4656 11.004 10.7063 9.24698 10.9031C9.53615 11.15 9.78131 11.6187 9.78131 12.3531C9.78131 13.4062 9.77188 14.7094 9.77188 14.9656C9.77188 15.1687 9.91646 15.4156 10.3156 15.3438C13.4587 14.3062 15.5897 11.3406 15.5897 7.875C15.5897 3.54063 12.0538 0.25 7.69429 0.25ZM3.05509 11.0281C3.01423 11.0594 3.02366 11.1313 3.07709 11.1906C3.12738 11.2406 3.19967 11.2625 3.24053 11.2219C3.28139 11.1906 3.27196 11.1187 3.21853 11.0594C3.16824 11.0094 3.09595 10.9875 3.05509 11.0281ZM2.71563 10.775C2.69363 10.8156 2.72506 10.8656 2.78792 10.8969C2.83821 10.9281 2.90108 10.9187 2.92308 10.875C2.94508 10.8344 2.91365 10.7844 2.85079 10.7531C2.78792 10.7344 2.73763 10.7437 2.71563 10.775ZM3.73399 11.8875C3.68371 11.9281 3.70256 12.0219 3.77486 12.0813C3.84715 12.1531 3.9383 12.1625 3.97916 12.1125C4.02002 12.0719 4.00116 11.9781 3.9383 11.9187C3.86915 11.8469 3.77486 11.8375 3.73399 11.8875ZM3.37568 11.4281C3.32539 11.4594 3.32539 11.5406 3.37568 11.6125C3.42597 11.6844 3.51084 11.7156 3.5517 11.6844C3.60198 11.6438 3.60198 11.5625 3.5517 11.4906C3.50769 11.4188 3.42597 11.3875 3.37568 11.4281Z" fill="#656565"/>
</g>
</g>
<defs>
<clipPath id="clip0_74_9">
<rect width="15.5897" height="16" fill="white"/>
</clipPath>
<clipPath id="clip1_74_9">
<rect width="15.5897" height="16" fill="white"/>
</clipPath>
</defs>
</svg>
