<svg width="16" height="16" viewBox="0 0 16 16" fill="none" xmlns="http://www.w3.org/2000/svg">
<g clip-path="url(#clip0_74_10)">
<path d="M15.4286 12.0001V2.8572C15.4286 2.54161 15.1727 2.28577 14.8571 2.28577H1.14284C0.839736 2.28577 0.571411 2.55409 0.571411 2.8572V12.0001C0.571411 12.3031 0.839736 12.5715 1.14284 12.5715H14.8571C15.1602 12.5715 15.4286 12.3031 15.4286 12.0001Z" stroke="#656565" stroke-linecap="round" stroke-linejoin="round"/>
<path d="M6.85715 12.5715L5.71429 15.4287" stroke="#656565" stroke-linecap="round" stroke-linejoin="round"/>
<path d="M9.14282 12.5715L10.2857 15.4287" stroke="#656565" stroke-linecap="round" stroke-linejoin="round"/>
<path d="M4.57141 15.4286H11.4286" stroke="#656565" stroke-linecap="round" stroke-linejoin="round"/>
<path d="M5.20776 8.65295C5.75215 9.20663 6.71365 9.71418 7.99997 9.71418C9.28629 9.71418 10.2478 9.20663 10.7922 8.65295" stroke="#656565" stroke-linecap="round" stroke-linejoin="round"/>
<path d="M6.00026 5.71488C5.84233 5.71488 5.71429 5.58684 5.71429 5.42891C5.71429 5.27098 5.84233 5.14294 6.00026 5.14294" stroke="#656565" stroke-linecap="round" stroke-linejoin="round"/>
<path d="M5.99988 5.71488C6.15781 5.71488 6.28584 5.58684 6.28584 5.42891C6.28584 5.27098 6.15781 5.14294 5.99988 5.14294" stroke="#656565" stroke-linecap="round" stroke-linejoin="round"/>
<path d="M10 5.71437C9.84221 5.71437 9.71429 5.58645 9.71429 5.42866C9.71429 5.27086 9.84221 5.14294 10 5.14294" stroke="#656565" stroke-linecap="round" stroke-linejoin="round"/>
<path d="M9.99963 5.71437C10.1574 5.71437 10.2854 5.58645 10.2854 5.42866C10.2854 5.27086 10.1574 5.14294 9.99963 5.14294" stroke="#656565" stroke-linecap="round" stroke-linejoin="round"/>
</g>
<defs>
<clipPath id="clip0_74_10">
<rect width="16" height="16" fill="white"/>
</clipPath>
</defs>
</svg>
